<?xml version="1.0" encoding="UTF-8" standalone="no"?>
<!-- Created with Inkscape (http://www.inkscape.org/) -->

<svg
   version="1.1"
   id="svg2"
   width="450"
   height="901.94702"
   viewBox="0 0 449.99999 901.94703"
   sodipodi:docname="logo oeuf bgV2.svg"
   inkscape:version="1.4 (86a8ad7, 2024-10-11)"
   xmlns:inkscape="http://www.inkscape.org/namespaces/inkscape"
   xmlns:sodipodi="http://sodipodi.sourceforge.net/DTD/sodipodi-0.dtd"
   xmlns="http://www.w3.org/2000/svg"
   xmlns:svg="http://www.w3.org/2000/svg"
   xmlns:rdf="http://www.w3.org/1999/02/22-rdf-syntax-ns#"
   xmlns:cc="http://creativecommons.org/ns#"
   xmlns:dc="http://purl.org/dc/elements/1.1/">
  <metadata
     id="metadata8">
    <rdf:RDF>
      <cc:Work
         rdf:about="">
        <dc:format>image/svg+xml</dc:format>
        <dc:type
           rdf:resource="http://purl.org/dc/dcmitype/StillImage" />
      </cc:Work>
    </rdf:RDF>
  </metadata>
  <defs
     id="defs6" />
  <sodipodi:namedview
     pagecolor="#ffffff"
     bordercolor="#ffffff"
     borderopacity="0"
     objecttolerance="10"
     gridtolerance="10"
     guidetolerance="10"
     inkscape:pageopacity="0"
     inkscape:pageshadow="2"
     inkscape:window-width="1920"
     inkscape:window-height="1009"
     id="namedview4"
     showgrid="false"
     inkscape:zoom="0.49497474"
     inkscape:cx="371.73614"
     inkscape:cy="516.18796"
     inkscape:window-x="-8"
     inkscape:window-y="-8"
     inkscape:window-maximized="1"
     inkscape:current-layer="svg2"
     inkscape:showpageshadow="2"
     inkscape:pagecheckerboard="0"
     inkscape:deskcolor="#d1d1d1" />
  <text
     xml:space="preserve"
     style="font-size:26.6667px;line-height:1.25;font-family:Seeds;-inkscape-font-specification:Seeds;letter-spacing:1.15px;word-spacing:0px"
     id="text9"
     x="-332.64246"
     y="623.28839" />
  <g
     id="g10"
     transform="matrix(2.8226757,0,0,2.8226757,-123.35474,-183.22738)"
     style="fill:#ffffff;stroke:none">
    <path
       id="path2"
       style="fill:#ffffff;fill-opacity:0.2;stroke:none;stroke-width:0.64;stroke-opacity:0.2"
       d="m 310.96157,203.62144 c -0.24795,-0.25908 -2.80893,1.90171 -5.68946,4.80079 l -5.23632,5.27148 0.60937,5.75976 c 0.98483,9.31477 0.78993,22.58966 -0.39062,26.60352 -2.03513,6.91937 -5.95549,13.30423 -11.90821,19.39453 -3.08936,3.16078 -5.79707,5.56817 -6.01562,5.34961 -0.21856,-0.21856 -0.63761,-4.80588 -0.93164,-10.19336 -0.69543,-12.7427 -1.93902,-25.47461 -2.48828,-25.47461 -0.23857,0 -1.08961,0.88532 -1.89063,1.96875 -1.38227,1.86963 -1.42227,2.22599 -0.7832,6.97461 1.2521,9.30385 2.19843,28.18983 1.49023,29.74414 -0.74301,1.63074 -8.01294,6.07559 -16.13086,9.86328 -10.29799,4.8049 -24.29899,9.08499 -36.78125,11.24219 -5.07872,0.87772 -6.00255,1.25256 -7.99023,3.24024 -2.74537,2.74535 -2.54418,2.77274 7.41406,1.02734 18.41206,-3.22709 35.78384,-9.34564 50.31641,-17.72266 1.67166,-0.96361 3.1493,-1.63333 3.2832,-1.48632 0.40932,0.44939 -0.81392,14.58466 -1.87891,21.70898 -3.06046,20.47313 -9.05194,34.50134 -18.89062,44.23633 -22.8495,22.60867 -61.71295,31.10131 -97.78125,21.36719 -15.138,-4.08544 -26.82499,-10.6095 -34.56445,-19.29297 -7.4536,-8.36276 -12.19059,-21.97942 -14.49414,-41.67188 -0.83911,-7.17336 -1.34089,-23.19922 -0.72657,-23.19922 0.12458,0 3.79675,1.62258 8.16016,3.60547 14.1648,6.43698 27.7109,10.33663 45.37305,13.06445 10.12704,1.56407 11.52442,1.57952 11.51172,0.12891 -0.0203,-2.31476 -1.11779,-2.75658 -9.95704,-4.02344 -17.23387,-2.47 -35.31435,-7.77704 -47.87695,-14.05273 l -6.33398,-3.16406 -1.67188,1.1914 c -4.08241,2.91006 -4.0191,2.62986 -3.29883,14.625 0.98277,16.36668 2.6118,25.9606 6.25391,36.84961 2.01938,6.03746 1.65759,6.09701 -2.66797,0.44336 -7.57732,-9.90384 -15.982403,-24.16408 -19.51758,-33.11523 l -0.808594,-2.04688 -4.736328,3.95313 c -2.604887,2.17382 -4.736328,4.19336 -4.736328,4.48828 0,0.99152 4.422842,10.11935 7.767578,16.03125 8.576912,15.15993 20.026682,28.98338 31.898442,38.51172 17.08271,13.71067 37.58918,22.00758 59.15234,23.93359 8.44065,0.75387 11.37416,0.75905 19.48633,0.041 55.07508,-4.87487 100.9994,-51.04205 113.30274,-113.9043 2.48678,-12.70593 2.94401,-17.97075 2.91601,-33.60156 -0.0261,-14.59814 -1.42597,-31.07916 -2.75781,-32.47071 z m -10.9043,53.28907 c 0.59854,-0.0277 -1.1281,11.35748 -2.98047,19.65039 -3.88118,17.37579 -9.91962,31.7368 -19.24414,45.77148 -2.28018,3.432 -4.2747,6.24024 -4.43164,6.24024 -0.50997,0 -0.30273,-1.07969 0.63672,-3.32813 3.25176,-7.78255 6.21411,-23.58658 7.37695,-39.36133 l 0.66992,-9.08984 6.23633,-6.07227 c 3.42995,-3.33934 7.38693,-7.80821 8.79493,-9.93164 1.40799,-2.12343 2.73177,-3.8689 2.9414,-3.8789 z" />
    <path
       id="path5"
       style="fill:#ffffff;fill-opacity:0.2;stroke:none;stroke-width:0.64;stroke-opacity:0.2"
       d="m 191.68618,65.232775 c -5.67371,0.0056 -11.44174,0.398451 -15.43164,1.177734 -35.18216,6.87154 -66.76114,33.835251 -87.423834,74.642571 -11.886424,23.47488 -19.402109,49.43836 -22.78711,78.72071 -2.154451,18.63734 0.0021,46.98788 4.576172,60.14648 0.42502,1.22268 9.783672,-8.74807 9.826172,-10.46875 0.0163,-0.6604 -0.425985,-3.88042 -0.984375,-7.15625 -1.438604,-8.43975 -1.112275,-9.03056 2.189453,-3.96289 3.630881,5.57291 4.269723,6.08508 5.81836,4.68359 1.172644,-1.06121 1.109054,-1.22915 -2.128907,-5.74218 -7.085719,-9.87602 -9.071339,-18.67626 -7.453125,-33.02149 2.270714,-20.12953 5.751924,-37.06655 10.457032,-50.8789 6.029062,-17.69906 11.670882,-29.72163 19.373052,-41.28125 4.35202,-6.53166 13.37106,-18.10308 14.38281,-18.45313 0.33914,-0.11733 0.62005,0.45992 0.62305,1.28125 0.0201,4.79253 6.70753,13.1412 13.75586,17.17383 1.98872,1.13784 3.74561,2.40681 3.90429,2.82031 0.15868,0.41352 -1.62772,4.76276 -3.96875,9.66602 -12.7394,26.68254 -23.00923,60.40849 -27.34179,89.78515 l -0.87891,5.95313 2.35156,-2.29492 c 2.24908,-2.19617 2.41383,-2.66222 3.79492,-10.67188 3.23865,-18.78223 10.48256,-44.16326 17.96094,-62.93945 5.07777,-12.74886 12.19903,-27.20141 13.39844,-27.19141 0.55952,0.004 3.17641,0.69557 5.81641,1.53516 13.14635,4.18088 26.33361,5.75199 44.71289,5.33008 16.59783,-0.38102 25.31627,-1.74278 37.41211,-5.84375 l 8.20507,-2.78125 1.4961,2.36914 c 6.67062,10.56696 17.54949,36.95228 22.74804,55.17187 1.43926,5.04423 2.75695,9.58405 2.92774,10.08985 0.23878,0.70716 0.68698,0.54153 1.94336,-0.71485 l 1.63476,-1.63281 -1.67773,-6.1582 c -4.37418,-16.0561 -12.04721,-35.81054 -20.01758,-51.53711 -2.56546,-5.06198 -4.66406,-9.40867 -4.66406,-9.6582 0,-0.24954 1.72015,-1.78987 3.82422,-3.42383 3.92126,-3.04514 7.92875,-8.33909 8.68945,-11.48047 0.23521,-0.97132 0.64593,-1.89995 0.91211,-2.06445 0.55733,-0.34446 9.05924,11.35815 14.40625,19.83007 7.24313,11.4762 14.26784,27.24293 18.96289,42.56055 0.8092,2.64 1.53488,4.90106 1.61328,5.02344 0.0784,0.12237 2.25183,-1.44028 4.82813,-3.47071 2.57626,-2.03041 4.76107,-3.74304 4.85547,-3.80664 0.0944,-0.0636 -0.86173,-3.08143 -2.12305,-6.70507 -8.92902,-25.65246 -22.8214,-49.8347 -39.15625,-68.16016 -16.68118,-18.71397 -36.36075,-31.01651 -56.49219,-35.312498 -3.61665,-0.771783 -9.1974,-1.154032 -14.87109,-1.148437 z m -12.39453,11.896484 c 3.57278,-0.07503 5.5039,0.495507 5.5039,0.50586 0,0.319866 -1.94236,2.097431 -4.31836,3.951172 -10.76062,8.395377 -20.87683,21.188189 -32.72851,41.386719 -2.5301,4.31199 -4.66173,7.83166 -4.73633,7.82226 -1.44549,-0.18185 -8.60623,-4.96831 -11.16406,-7.46289 -3.82741,-3.73272 -5.29102,-6.62219 -5.29102,-10.43945 0,-4.28675 1.42548,-6.49007 8.45117,-13.05078 20.62295,-19.258048 36.42305,-22.547813 44.28321,-22.712891 z m 22.73828,0.269532 c 9.20503,0.19627 20.36205,4.992015 22.76562,6.201171 3.93753,1.980835 11.06112,6.742769 15.8125,10.572266 6.19942,4.996569 13.74465,13.667252 14.57422,16.748042 1.38721,5.15172 -1.38797,10.97135 -7.39648,15.50782 -1.79615,1.3561 -3.5727,2.46484 -3.94727,2.46484 -0.37457,0 -1.4763,-1.36902 -2.44922,-3.04102 -3.16712,-5.44276 -11.50944,-17.63958 -15.64843,-22.8789 -6.03959,-7.645184 -16.26238,-17.513947 -22.22461,-21.455079 -2.904,-1.919591 -5.50101,-3.862694 -5.2793,-3.896484 1.20412,-0.183508 2.47796,-0.250695 3.79297,-0.222656 z m -10.58008,1.988281 4.70312,2.484375 c 11.81395,6.243925 24.00142,18.912543 36.41016,37.847653 6.14085,9.37067 7.22135,11.61244 5.9707,12.39453 -2.26285,1.41511 -15.67333,5.22002 -22.69726,6.43945 -9.94705,1.72694 -31.4177,2.21463 -41.2793,0.9375 -10.30837,-1.33495 -26.88086,-5.57753 -26.88086,-6.88085 0,-1.97989 9.43732,-17.63956 16.4707,-27.33203 6.23793,-8.596271 16.374,-18.862756 22.53711,-22.826175 z" />
    <path
       style="fill:#ffffff;fill-opacity:0.2;stroke:none;stroke-width:0.64;stroke-opacity:0.2"
       d="m 45.249957,321.21284 c 1.19141,-1.408 34.87057,-39.08462 74.842563,-83.72584 58.08036,-64.86485 75.46565,-83.39977 75.46565,-83.39977 0,0 2.57579,11.54325 22.36036,102.12195 55.88984,-44.10322 22.37235,-17.81234 53.04326,-41.79376 30.67093,-23.98141 57.59893,-45.03006 59.84,-46.77477 2.65666,-2.06824 -1.58968,2.60901 -12.20179,13.44 -36.01911,36.76201 -134.63955,136.17706 -134.63955,136.17706 0,0 1.07191,4.61669 -19.98915,-90.77313 -118.949163,96.31132 -0.43431,-0.16327 -119.311183,95.93475 -1.032169,0.83439 -0.79393,0.42884 0.58984,-1.20649 z"
       id="path4"
       sodipodi:nodetypes="ssccsssccss" />
  </g>
</svg>
